<?xml version="1.0" encoding="UTF-8" ?>
<!DOCTYPE svg PUBLIC "-//W3C//DTD SVG 1.1//EN" "http://www.w3.org/Graphics/SVG/1.1/DTD/svg11.dtd">
<svg width="163pt" height="51pt" viewBox="0 0 163 51" version="1.1" xmlns="http://www.w3.org/2000/svg">
<path fill="#fefefe" d=" M 0.00 0.00 L 163.00 0.00 L 163.00 51.00 L 0.00 51.00 L 0.00 0.00 Z" />
<path fill="#e37c1c" d=" M 7.32 9.23 C 8.83 7.80 11.11 8.33 12.99 8.17 C 19.69 8.28 26.39 8.11 33.09 8.23 C 34.24 8.26 36.24 8.55 36.09 10.13 C 36.54 18.42 36.03 26.75 36.48 35.05 C 37.33 26.26 36.55 17.44 36.91 8.64 C 45.61 7.80 54.39 8.28 63.12 8.28 C 65.24 8.08 65.93 9.96 66.06 11.77 C 65.69 7.52 70.16 8.20 72.97 8.17 C 80.35 8.41 87.78 7.78 95.14 8.61 C 95.45 14.63 94.68 20.73 95.64 26.70 C 96.20 20.89 95.14 15.00 96.10 9.23 C 97.70 7.77 100.03 8.33 102.00 8.17 C 108.69 8.29 115.39 8.08 122.08 8.25 C 123.64 8.09 125.40 9.26 125.28 10.96 C 125.59 17.31 125.05 23.66 125.29 30.02 C 126.04 22.90 125.57 15.74 125.77 8.60 C 132.15 7.85 138.58 8.35 144.98 8.19 C 147.82 8.25 150.71 7.93 153.51 8.55 C 155.29 10.16 154.44 12.90 154.69 15.02 C 154.31 23.28 155.08 31.56 154.57 39.81 C 154.25 42.52 150.93 41.76 149.01 41.94 C 141.42 41.67 133.77 42.36 126.21 41.57 C 126.00 40.11 125.60 37.17 125.39 35.71 C 125.08 37.20 124.45 40.17 124.14 41.66 C 114.94 42.03 105.64 42.17 96.45 41.60 C 96.20 38.58 95.70 32.54 95.45 29.52 C 95.38 32.23 95.26 37.63 95.19 40.34 C 94.77 42.49 92.55 41.66 91.12 41.92 C 83.70 41.83 76.28 42.05 68.86 41.83 C 67.65 41.93 66.94 40.77 66.07 40.15 C 65.15 40.75 64.45 41.93 63.22 41.84 C 57.49 42.08 51.75 41.80 46.01 41.92 C 43.03 41.87 39.97 42.22 37.07 41.35 C 36.86 38.93 36.44 34.11 36.23 31.69 C 36.23 33.77 36.23 37.91 36.24 39.98 L 35.28 41.60 C 27.89 42.34 20.41 41.67 12.98 41.94 C 11.11 41.70 8.61 42.50 7.32 40.71 C 6.68 35.57 7.18 30.36 7.06 25.19 C 9.86 25.16 12.66 25.15 15.46 25.16 C 15.47 28.63 15.46 32.10 15.51 35.57 C 16.65 35.59 17.79 35.62 18.93 35.63 C 18.96 32.12 18.94 28.61 18.95 25.11 C 20.83 28.65 22.64 32.23 24.54 35.76 C 25.74 35.65 26.94 35.54 28.14 35.42 C 26.21 31.63 24.33 27.82 22.48 24.00 C 24.03 21.02 25.61 18.05 27.20 15.09 C 26.06 15.12 24.92 15.15 23.79 15.19 C 22.47 17.70 21.13 20.19 19.86 22.73 C 19.58 22.74 19.02 22.75 18.74 22.76 C 18.79 20.19 18.83 17.63 18.88 15.07 C 17.77 15.12 16.66 15.16 15.55 15.21 C 15.57 18.41 15.57 21.60 15.54 24.80 C 12.70 24.81 9.87 24.80 7.03 24.76 C 7.13 19.59 6.64 14.37 7.32 9.23 Z" />
<path fill="#fefefe" d=" M 48.77 15.28 C 50.40 15.08 52.03 14.91 53.67 14.78 C 55.29 21.75 57.24 28.65 58.54 35.69 C 57.72 35.66 56.10 35.60 55.28 35.56 C 54.93 34.12 54.59 32.68 54.24 31.24 C 52.36 31.24 50.47 31.24 48.59 31.24 C 48.13 32.62 47.74 34.03 47.13 35.36 C 46.11 35.56 45.07 35.61 44.03 35.71 C 45.45 28.86 47.31 22.11 48.77 15.28 Z" />
<path fill="#fefefe" d=" M 73.85 15.08 C 74.64 15.11 76.23 15.16 77.02 15.19 C 78.34 17.77 79.68 20.34 80.99 22.93 C 82.31 20.34 83.65 17.77 84.99 15.19 C 85.78 15.16 87.36 15.11 88.15 15.08 C 86.32 18.75 84.06 22.28 83.06 26.29 C 82.59 29.38 82.86 32.52 82.73 35.63 C 81.58 35.64 80.42 35.64 79.27 35.64 C 79.03 31.77 79.75 27.71 78.25 24.02 C 77.02 20.93 75.37 18.03 73.85 15.08 Z" />
<path fill="#fefefe" d=" M 108.27 15.15 C 109.96 14.78 112.83 13.98 113.25 16.39 C 114.95 22.84 116.54 29.33 117.84 35.88 C 116.81 35.76 115.78 35.58 114.77 35.36 C 114.14 34.04 113.76 32.63 113.29 31.24 C 111.39 31.24 109.49 31.25 107.60 31.25 C 107.31 32.65 107.02 34.04 106.74 35.44 C 105.90 35.51 104.23 35.65 103.39 35.72 C 104.77 28.81 106.28 21.90 108.27 15.15 Z" />
<path fill="#fefefe" d=" M 134.16 15.05 C 134.96 15.09 136.54 15.18 137.34 15.22 C 137.36 18.35 137.38 21.49 137.50 24.63 C 138.88 21.36 140.61 18.26 142.31 15.14 C 143.48 15.14 144.65 15.14 145.82 15.13 C 144.17 18.03 142.60 20.98 141.06 23.95 C 142.82 27.80 144.73 31.58 146.58 35.39 C 145.43 35.54 144.28 35.69 143.12 35.83 C 141.20 32.30 139.39 28.70 137.41 25.20 C 137.40 28.64 137.44 32.09 137.39 35.53 C 136.31 35.59 135.22 35.64 134.14 35.68 C 133.70 28.81 134.32 21.93 134.16 15.05 Z" />
<path fill="#e37c1c" d=" M 49.07 28.32 C 49.72 24.99 50.09 21.49 51.77 18.47 C 52.30 21.77 52.77 25.08 53.53 28.34 C 52.41 28.33 50.19 28.33 49.07 28.32 Z" />
<path fill="#e37c1c" d=" M 108.30 28.33 C 109.20 24.22 110.08 20.10 111.07 16.00 C 111.10 20.17 111.80 24.29 112.83 28.32 C 111.70 28.32 109.43 28.33 108.30 28.33 Z" />
</svg>
